<mxfile host="www.draw.io" modified="2019-12-10T10:17:05.185Z" agent="Mozilla/5.0 (Windows NT 10.0; Win64; x64) AppleWebKit/537.36 (KHTML, like Gecko) Chrome/78.0.3904.108 Safari/537.36" etag="JNOr7tZRNwTWVZTNqNiW" version="12.3.9" type="github" pages="1">
  <diagram id="Nkxvj2AnSda4M5apKmA2" name="Page-1">
    <mxGraphModel dx="1422" dy="794" grid="1" gridSize="10" guides="1" tooltips="1" connect="1" arrows="1" fold="1" page="1" pageScale="1" pageWidth="827" pageHeight="1169" math="1" shadow="0">
      <root>
        <mxCell id="0"/>
        <mxCell id="1" parent="0"/>
        <mxCell id="IEOjccWWth4mxjhlCz5g-6" value="" style="group" parent="1" vertex="1" connectable="0">
          <mxGeometry x="104" y="190" width="30" height="30" as="geometry"/>
        </mxCell>
        <mxCell id="IEOjccWWth4mxjhlCz5g-7" value="" style="group" parent="IEOjccWWth4mxjhlCz5g-6" vertex="1" connectable="0">
          <mxGeometry width="30" height="30" as="geometry"/>
        </mxCell>
        <mxCell id="IEOjccWWth4mxjhlCz5g-8" value="" style="group" parent="IEOjccWWth4mxjhlCz5g-7" vertex="1" connectable="0">
          <mxGeometry width="30" height="30" as="geometry"/>
        </mxCell>
        <mxCell id="IEOjccWWth4mxjhlCz5g-4" value="" style="ellipse;whiteSpace=wrap;html=1;aspect=fixed;" parent="IEOjccWWth4mxjhlCz5g-8" vertex="1">
          <mxGeometry width="30" height="30" as="geometry"/>
        </mxCell>
        <mxCell id="IEOjccWWth4mxjhlCz5g-5" value="" style="endArrow=none;html=1;" parent="IEOjccWWth4mxjhlCz5g-8" edge="1">
          <mxGeometry width="50" height="50" relative="1" as="geometry">
            <mxPoint x="4.285714285714286" y="25.71428571428571" as="sourcePoint"/>
            <mxPoint x="25.71428571428571" y="4.285714285714286" as="targetPoint"/>
          </mxGeometry>
        </mxCell>
        <mxCell id="IEOjccWWth4mxjhlCz5g-9" value="" style="endArrow=classic;html=1;" parent="1" edge="1">
          <mxGeometry width="50" height="50" relative="1" as="geometry">
            <mxPoint x="118.5" y="120" as="sourcePoint"/>
            <mxPoint x="118.5" y="190" as="targetPoint"/>
          </mxGeometry>
        </mxCell>
        <mxCell id="IEOjccWWth4mxjhlCz5g-10" value="&lt;span style=&quot;font-size: 32px ; text-align: left&quot;&gt;$$I(\lambda)$$&lt;/span&gt;" style="text;html=1;align=center;verticalAlign=middle;resizable=0;points=[];;autosize=1;" parent="1" vertex="1">
          <mxGeometry x="4" y="80" width="230" height="30" as="geometry"/>
        </mxCell>
        <mxCell id="IEOjccWWth4mxjhlCz5g-13" value="&lt;div style=&quot;text-align: left&quot;&gt;&lt;span style=&quot;font-size: 32px&quot;&gt;$$I_0(\lambda)$$&lt;/span&gt;&lt;/div&gt;" style="text;html=1;align=center;verticalAlign=middle;resizable=0;points=[];;autosize=1;" parent="1" vertex="1">
          <mxGeometry x="95" y="190" width="270" height="30" as="geometry"/>
        </mxCell>
        <mxCell id="IEOjccWWth4mxjhlCz5g-14" value="" style="endArrow=classic;html=1;entryX=1;entryY=0.5;entryDx=0;entryDy=0;" parent="1" target="IEOjccWWth4mxjhlCz5g-4" edge="1">
          <mxGeometry width="50" height="50" relative="1" as="geometry">
            <mxPoint x="184" y="205" as="sourcePoint"/>
            <mxPoint x="129" y="270" as="targetPoint"/>
          </mxGeometry>
        </mxCell>
        <mxCell id="IEOjccWWth4mxjhlCz5g-19" style="edgeStyle=orthogonalEdgeStyle;rounded=0;orthogonalLoop=1;jettySize=auto;html=1;exitX=0.5;exitY=1;exitDx=0;exitDy=0;" parent="1" source="IEOjccWWth4mxjhlCz5g-4" edge="1">
          <mxGeometry relative="1" as="geometry">
            <mxPoint x="119" y="290" as="targetPoint"/>
          </mxGeometry>
        </mxCell>
        <mxCell id="IEOjccWWth4mxjhlCz5g-37" style="edgeStyle=orthogonalEdgeStyle;rounded=0;orthogonalLoop=1;jettySize=auto;html=1;exitX=0.5;exitY=1;exitDx=0;exitDy=0;" parent="1" source="IEOjccWWth4mxjhlCz5g-21" edge="1">
          <mxGeometry relative="1" as="geometry">
            <mxPoint x="119.19047619047615" y="390" as="targetPoint"/>
          </mxGeometry>
        </mxCell>
        <mxCell id="IEOjccWWth4mxjhlCz5g-21" value="" style="ellipse;whiteSpace=wrap;html=1;aspect=fixed;" parent="1" vertex="1">
          <mxGeometry x="104" y="290" width="30" height="30" as="geometry"/>
        </mxCell>
        <mxCell id="IEOjccWWth4mxjhlCz5g-27" value="" style="group" parent="1" vertex="1" connectable="0">
          <mxGeometry x="109" y="295" width="20" height="20" as="geometry"/>
        </mxCell>
        <mxCell id="IEOjccWWth4mxjhlCz5g-22" value="" style="endArrow=none;html=1;" parent="IEOjccWWth4mxjhlCz5g-27" edge="1">
          <mxGeometry width="50" height="50" relative="1" as="geometry">
            <mxPoint y="10" as="sourcePoint"/>
            <mxPoint x="20" y="10" as="targetPoint"/>
          </mxGeometry>
        </mxCell>
        <mxCell id="IEOjccWWth4mxjhlCz5g-26" value="" style="endArrow=none;html=1;" parent="IEOjccWWth4mxjhlCz5g-27" edge="1">
          <mxGeometry width="50" height="50" relative="1" as="geometry">
            <mxPoint x="10" y="20" as="sourcePoint"/>
            <mxPoint x="10" as="targetPoint"/>
          </mxGeometry>
        </mxCell>
        <mxCell id="IEOjccWWth4mxjhlCz5g-30" value="" style="endArrow=classic;html=1;entryX=1;entryY=0.5;entryDx=0;entryDy=0;" parent="1" edge="1">
          <mxGeometry width="50" height="50" relative="1" as="geometry">
            <mxPoint x="184" y="304.5" as="sourcePoint"/>
            <mxPoint x="134" y="304.5" as="targetPoint"/>
          </mxGeometry>
        </mxCell>
        <mxCell id="IEOjccWWth4mxjhlCz5g-31" value="&lt;font style=&quot;font-size: 32px&quot;&gt;$$-1$$&lt;/font&gt;" style="text;html=1;align=center;verticalAlign=middle;resizable=0;points=[];;autosize=1;" parent="1" vertex="1">
          <mxGeometry x="150" y="290" width="120" height="30" as="geometry"/>
        </mxCell>
        <mxCell id="IEOjccWWth4mxjhlCz5g-35" value="&lt;font style=&quot;font-size: 24px&quot;&gt;$$RR$$&lt;/font&gt;" style="text;html=1;align=center;verticalAlign=middle;resizable=0;points=[];;autosize=1;" parent="1" vertex="1">
          <mxGeometry x="29" y="245" width="100" height="20" as="geometry"/>
        </mxCell>
        <mxCell id="IEOjccWWth4mxjhlCz5g-38" value="&lt;span style=&quot;font-size: 24px&quot;&gt;$$RR-1$$&lt;br&gt;&lt;/span&gt;" style="text;html=1;align=center;verticalAlign=middle;resizable=0;points=[];;autosize=1;" parent="1" vertex="1">
          <mxGeometry x="9" y="360" width="120" height="20" as="geometry"/>
        </mxCell>
        <mxCell id="IEOjccWWth4mxjhlCz5g-97" value="" style="group" parent="1" vertex="1" connectable="0">
          <mxGeometry x="104" y="390" width="30" height="30" as="geometry"/>
        </mxCell>
        <mxCell id="IEOjccWWth4mxjhlCz5g-99" value="" style="group" parent="IEOjccWWth4mxjhlCz5g-97" vertex="1" connectable="0">
          <mxGeometry width="30" height="30" as="geometry"/>
        </mxCell>
        <mxCell id="IEOjccWWth4mxjhlCz5g-100" value="" style="ellipse;whiteSpace=wrap;html=1;aspect=fixed;" parent="IEOjccWWth4mxjhlCz5g-99" vertex="1">
          <mxGeometry width="30" height="30" as="geometry"/>
        </mxCell>
        <mxCell id="IEOjccWWth4mxjhlCz5g-101" value="" style="endArrow=none;html=1;" parent="IEOjccWWth4mxjhlCz5g-99" edge="1">
          <mxGeometry width="50" height="50" relative="1" as="geometry">
            <mxPoint x="4.285714285714286" y="25.71428571428571" as="sourcePoint"/>
            <mxPoint x="25.71428571428571" y="4.285714285714286" as="targetPoint"/>
          </mxGeometry>
        </mxCell>
        <mxCell id="IEOjccWWth4mxjhlCz5g-110" value="" style="endArrow=none;html=1;fontColor=#FFFFFF;" parent="IEOjccWWth4mxjhlCz5g-99" edge="1">
          <mxGeometry width="50" height="50" relative="1" as="geometry">
            <mxPoint x="5" y="5" as="sourcePoint"/>
            <mxPoint x="25" y="25" as="targetPoint"/>
          </mxGeometry>
        </mxCell>
        <mxCell id="IEOjccWWth4mxjhlCz5g-113" value="" style="endArrow=none;html=1;" parent="IEOjccWWth4mxjhlCz5g-99" edge="1">
          <mxGeometry width="50" height="50" relative="1" as="geometry">
            <mxPoint x="4.285714285714334" y="4.285714285714334" as="sourcePoint"/>
            <mxPoint x="25.71428571428578" y="25.71428571428578" as="targetPoint"/>
          </mxGeometry>
        </mxCell>
        <mxCell id="IEOjccWWth4mxjhlCz5g-118" value="" style="endArrow=classic;html=1;fontColor=#000000;entryX=1;entryY=0.5;entryDx=0;entryDy=0;" parent="1" target="IEOjccWWth4mxjhlCz5g-100" edge="1">
          <mxGeometry width="50" height="50" relative="1" as="geometry">
            <mxPoint x="190" y="405" as="sourcePoint"/>
            <mxPoint x="240" y="355" as="targetPoint"/>
          </mxGeometry>
        </mxCell>
        <mxCell id="IEOjccWWth4mxjhlCz5g-119" value="&lt;font style=&quot;font-size: 32px&quot;&gt;$$\vec{QE}(\lambda)$$&lt;/font&gt;" style="text;html=1;align=center;verticalAlign=middle;resizable=0;points=[];;autosize=1;fontColor=#000000;" parent="1" vertex="1">
          <mxGeometry x="79" y="380" width="350" height="30" as="geometry"/>
        </mxCell>
        <mxCell id="IEOjccWWth4mxjhlCz5g-121" style="edgeStyle=orthogonalEdgeStyle;rounded=0;orthogonalLoop=1;jettySize=auto;html=1;exitX=0.5;exitY=1;exitDx=0;exitDy=0;fontColor=#000000;" parent="1" source="IEOjccWWth4mxjhlCz5g-100" edge="1">
          <mxGeometry relative="1" as="geometry">
            <mxPoint x="119" y="470" as="targetPoint"/>
          </mxGeometry>
        </mxCell>
        <mxCell id="IEOjccWWth4mxjhlCz5g-122" value="&lt;span style=&quot;font-size: 24px&quot;&gt;$$\vec{RR}$$&lt;br&gt;&lt;/span&gt;" style="text;html=1;align=center;verticalAlign=middle;resizable=0;points=[];;autosize=1;" parent="1" vertex="1">
          <mxGeometry x="40" y="500" width="160" height="20" as="geometry"/>
        </mxCell>
      </root>
    </mxGraphModel>
  </diagram>
</mxfile>
